<?xml version="1.0" ?><svg viewBox="0 0 100 100" xmlns="http://www.w3.org/2000/svg"><title/><circle cx="50" cy="50" fill="#e6e6e6" r="49.5"/><path d="M84.55077,52.015v2.27a1.33172,1.33172,0,0,1-1.25,1.35c-1.77.14-3.5.24-5.28.37994a1.37492,1.37492,0,0,0-1.24,1.1,33.60419,33.60419,0,0,1-1.06,3.89,1.29383,1.29383,0,0,0,.53,1.53c1.44,1.01,2.93,1.97,4.36,2.97a1.318,1.318,0,0,1,.44,1.78c-.87,1.48-1.49,2.54-2.31,3.98a1.3967,1.3967,0,0,1-1.77.53c-1.58-.77-3.17-1.54-4.75-2.31a1.32477,1.32477,0,0,0-1.58.34,25.205,25.205,0,0,1-2.83,2.83,1.25418,1.25418,0,0,0-.33,1.58c.76,1.58,1.53,3.17,2.3,4.75a1.31791,1.31791,0,0,1-.53,1.77c-1.49005.87-2.54,1.49-3.98,2.3a1.35145,1.35145,0,0,1-1.77-.43c-1.01-1.44-1.97-2.92-2.98-4.36a1.29382,1.29382,0,0,0-1.53-.53,25.88916,25.88916,0,0,1-3.89,1.06,1.369,1.369,0,0,0-1.1,1.24c-.14,1.78-.24005,3.5-.38,5.28a1.33168,1.33168,0,0,1-1.35,1.25h-4.55a1.316,1.316,0,0,1-1.34-1.25c-.15-1.78-.24005-3.5-.39-5.28a1.364,1.364,0,0,0-1.1-1.24,33.43882,33.43882,0,0,1-3.88-1.06,1.30736,1.30736,0,0,0-1.54.53c-1.01,1.44-1.97,2.92-2.97,4.36a1.306,1.306,0,0,1-1.78.43c-1.48-.86-2.54-1.48-3.98-2.3a1.38223,1.38223,0,0,1-.52-1.77c.76-1.58,1.53-3.17,2.3-4.75a1.3218,1.3218,0,0,0-.34-1.58,27.00181,27.00181,0,0,1-2.83-2.83,1.26929,1.26929,0,0,0-1.58-.34q-2.36993,1.155-4.75,2.31a1.31778,1.31778,0,0,1-1.77-.53c-.86-1.49-1.49005-2.54-2.3-3.98a1.36639,1.36639,0,0,1,.43005-1.78c1.44-1,2.92-1.96,4.36-2.97a1.29387,1.29387,0,0,0,.53-1.53,24.73233,24.73233,0,0,1-1.05-3.89,1.39,1.39,0,0,0-1.25-1.1c-1.78-.14-3.5-.24-5.28-.37994a1.3233,1.3233,0,0,1-1.24005-1.35v-2.27h16.91a17.516,17.516,0,0,0,1.34,5.75c.01.02.01.03.02.05a17.35268,17.35268,0,0,0,33.34-2.31c.01-.01.01-.01,0-.02v-.01c.01-.02.01-.05.02-.07a18.03971,18.03971,0,0,0,.35-3.39Z" fill="#2b687f"/><path d="M80.57079,48.215h-12.92a17.65813,17.65813,0,0,0-7.08-13.87l2.43-5.36a1.37012,1.37012,0,0,0-2.41-1.29l-3.01,4.84a17.66075,17.66075,0,0,0-25.24,15.68h-12.92a3.94984,3.94984,0,0,1-3.94-4.41,34.57122,34.57122,0,0,1,3.77-11.89l3.58,2.07a1.59006,1.59006,0,0,0,.75.2,1.5002,1.5002,0,0,0,.75-2.8l-3.56-2.06006a34.89868,34.89868,0,0,1,10.91-10.68994l1.98,3.43a1.48994,1.48994,0,0,0,1.3.75,1.58988,1.58988,0,0,0,.75-.2,1.50284,1.50284,0,0,0,.54-2.05l-1.96-3.4a34.46191,34.46191,0,0,1,14.7-3.73v3.72a1.5,1.5,0,1,0,3,0v-3.68a34.51129,34.51129,0,0,1,14.47,4.08l-1.74,3.01a1.506,1.506,0,0,0,.55,2.05,1.56,1.56,0,0,0,.75.2,1.50185,1.50185,0,0,0,1.3-.75l1.71-2.97a34.59136,34.59136,0,0,1,10.45,10.65l-2.84,1.64a1.50022,1.50022,0,0,0,.75,2.8,1.56,1.56,0,0,0,.75-.2l2.83-1.64a34.27762,34.27762,0,0,1,3.55,11.46A3.95719,3.95719,0,0,1,80.57079,48.215Z" fill="#ffab80"/><path d="M62.66076,48.495v2.45a12.665,12.665,0,0,1-25.33,0v-2.45a2.61821,2.61821,0,0,1,.01-.28,12.66419,12.66419,0,0,1,17.57-11.4l-7.1,11.4-.46.74a3.65668,3.65668,0,0,0-.18.34,3.005,3.005,0,1,0,5.47,2.49l1.62-3.57,4.17-9.16a12.59994,12.59994,0,0,1,4.22,9.16A2.61821,2.61821,0,0,1,62.66076,48.495Z" fill="#fff"/><path d="M63.00078,28.985l-2.43,5.36-1.07,2.33-1.07,2.38-4.17,9.16-1.62,3.57a3.005,3.005,0,1,1-5.47-2.49,3.65668,3.65668,0,0,1,.18-.34l.46-.74,7.1-11.4,1.33-2.14,1.34-2.14,3.01-4.84a1.37012,1.37012,0,0,1,2.41,1.29Z" fill="#2b687f"/></svg>