<?xml version="1.0" ?><svg viewBox="0 0 100 100" xmlns="http://www.w3.org/2000/svg"><title/><circle cx="50" cy="50" fill="#e6e6e6" r="49.5"/><path d="M58.27387,84.3774c-2.50772,2.65032-6.08049,3.33912-8.37842,3.48552a3.73807,3.73807,0,0,1-3.31175-1.61877A69.493,69.493,0,0,0,36.02977,74.63964a47.62,47.62,0,0,1,10.018-6.052A122.51793,122.51793,0,0,0,58.04664,80.27622,2.84324,2.84324,0,0,1,58.27387,84.3774Z" fill="#2b687f"/><path d="M40.97146,68.73733l-.01.0058c-1.29034.77895-2.46571,1.56168-3.433,2.24365l-.16068.10845c-1.63347,1.15879-2.659,2.00582-2.659,2.00582a10.6628,10.6628,0,0,1-12.00239-2.05913,10.436,10.436,0,0,1-1.14163-1.33715,10.6163,10.6163,0,0,1-1.79547-8.39364.07409.07409,0,0,1,.0086-.03183A10.3304,10.3304,0,0,1,20.5,59.0674a56.94276,56.94276,0,0,0,3.783-5.4773q.4286-.70557.85456-1.45792l.07561-.13479A28.25567,28.25567,0,0,0,40.97146,68.73733Z" fill="#ffab80"/><path d="M71.6436,59.71519c-8.73626,7.31868-12.09176,3.42337-21.42455,5.12716a29.77825,29.77825,0,0,0-9.24759,3.895A28.25567,28.25567,0,0,1,25.21319,51.99739a28.00784,28.00784,0,0,0,3.35513-8.54071C30.155,34.1055,26.22321,30.79642,33.42725,21.9702Z" fill="#2b687f"/><path d="M19.7684,61.29552l.0095-.01622a.07409.07409,0,0,0-.0086.03183Z" fill="#ed1944"/><ellipse cx="52.71494" cy="40.66155" fill="#10556b" rx="9.80226" ry="26.85729" transform="translate(-13.25845 49.59112) rotate(-45.35292)"/><path d="M78.9873,38.47754a2.00168,2.00168,0,0,1-1.96582-1.64062A25.57066,25.57066,0,0,0,56.22168,16.291a1.99993,1.99993,0,0,1,.66992-3.94336A29.58542,29.58542,0,0,1,80.957,36.11816a2.0012,2.0012,0,0,1-1.6084,2.32715A2.07045,2.07045,0,0,1,78.9873,38.47754Z" fill="#ffab80"/><path d="M71.00977,39.06641a2.00074,2.00074,0,0,1-1.96582-1.64062A16.37875,16.37875,0,0,0,55.7207,24.2666a2.00009,2.00009,0,1,1,.67188-3.94336A20.39368,20.39368,0,0,1,72.97949,36.707a2.0012,2.0012,0,0,1-1.6084,2.32715A2.07045,2.07045,0,0,1,71.00977,39.06641Z" fill="#ffab80"/><path d="M56.38606,45.40812a8.78279,8.78279,0,0,1-1.90306,5.5478,76.22907,76.22907,0,0,1-5.98455-5.33465,74.01124,74.01124,0,0,1-6.4122-7.176,8.87115,8.87115,0,0,1,14.29981,6.96287Z" fill="#fff"/></svg>